<svg xmlns="http://www.w3.org/2000/svg" viewBox="0 0 13.99 19.94"><defs><style>.cls-1{fill:#fff;}</style></defs><title>ceger8</title><g id="Layer_2" data-name="Layer 2"><g id="Mobile"><path class="cls-1" d="M12.89,6a.19.19,0,0,0-.22.13s0,.12-.22.65c-.08-.23-.16-.39-.16-.41A.19.19,0,0,0,12,6.27a.19.19,0,0,0-.07.25,2.48,2.48,0,0,1,.24,1h0a6.24,6.24,0,0,0-.15,1.36.18.18,0,0,0,.18.18h0a.19.19,0,0,0,.18-.19,5.66,5.66,0,0,1,.26-1.69,9.06,9.06,0,0,0,.33-1A.18.18,0,0,0,12.89,6Z"/><path class="cls-1" d="M13.2,5.57s-.45-1.06-1.27-1A4.42,4.42,0,0,0,10.35,5a3.88,3.88,0,0,1,1.46-1.45.17.17,0,0,0,.08-.24.18.18,0,0,0-.24-.09A4.23,4.23,0,0,0,10.1,4.7a3.11,3.11,0,0,1,0-.32.19.19,0,0,0-.17-.2.17.17,0,0,0-.19.16,4.91,4.91,0,0,0-.06.58c0,.56,0,.74.15.78h0c.08,0,.14,0,.19-.15A3.77,3.77,0,0,1,12,4.94c.56-.05.9.76.9.77a.18.18,0,0,0,.17.11l.07,0A.17.17,0,0,0,13.2,5.57Z"/><path class="cls-1" d="M4.8,10h0a.19.19,0,0,1-.18-.19c0-.11.09-2.69.27-3.71s.38-3.06.39-3.08a.17.17,0,0,1,.19-.16.19.19,0,0,1,.17.2s-.22,2.09-.39,3.1S5,9.83,5,9.85A.18.18,0,0,1,4.8,10Z"/><path class="cls-1" d="M5.2,9.52h0A.19.19,0,0,1,5,9.29a34.89,34.89,0,0,0,.6-4.12c0-.19,0-.35,0-.46a13.64,13.64,0,0,1,.39-1.87.19.19,0,0,1,.22-.13.19.19,0,0,1,.13.23A12,12,0,0,0,6,4.75C6,4.86,6,5,6,5.2a34.17,34.17,0,0,1-.61,4.18A.17.17,0,0,1,5.2,9.52Z"/><path class="cls-1" d="M2.71,4.62a.18.18,0,0,1-.17-.12,7.3,7.3,0,0,0-.86-1.79,1.32,1.32,0,0,0-.85-.19.2.2,0,0,1-.2-.17.18.18,0,0,1,.16-.2,1.71,1.71,0,0,1,1.12.29,3.58,3.58,0,0,1,.61,1.05,2.87,2.87,0,0,1,.17-1.06A.18.18,0,1,1,3,2.57a2.57,2.57,0,0,0-.13,1.05,2.2,2.2,0,0,1,0,.88.16.16,0,0,1-.17.12Z"/><path class="cls-1" d="M2,8.69c0-.1-.2-1.58-.44-2.87h0a9.06,9.06,0,0,0-.45-1.76A6,6,0,0,0,.31,2.9a.18.18,0,0,0-.25,0,.18.18,0,0,0,0,.26A5.86,5.86,0,0,1,.8,4.23a3,3,0,0,1,.2.62,1.57,1.57,0,0,0-.52-.34.18.18,0,1,0-.12.34,1.54,1.54,0,0,1,.86,1.06c.18,1,.35,2.22.43,2.83a.18.18,0,0,0,.18.16h0A.2.2,0,0,0,2,8.69Z"/><path class="cls-1" d="M4,7.44l.21-.14V7.24c0-.11,0-.23,0-.34a1.57,1.57,0,0,1-.37,0,3.05,3.05,0,0,0,.33-.23L4.05,6.3a1.36,1.36,0,0,1-.46,0A4.06,4.06,0,0,0,4,6.05H4l-.06-.3-.11,0a1.12,1.12,0,0,1-.48,0,2.81,2.81,0,0,0,.39-.27l.14-.13c0-.11,0-.2-.06-.29l-.28.13a1,1,0,0,1-.52,0A2.71,2.71,0,0,0,3.46,5l.28-.26a.82.82,0,0,0-1.18-.6c-.84.38-.56,1.24-.17,2.54a12.81,12.81,0,0,0,1,2.41c.16.36.72,1.31,1,1.24s.25-.74.15-1.28a14.16,14.16,0,0,1-.3-1.64Z"/><path class="cls-1" d="M9.34,8.73l.26,0,0-.05.18-.3a1.29,1.29,0,0,1-.3-.23,3.83,3.83,0,0,0,.41,0l.18-.34a1.22,1.22,0,0,1-.37-.26,3.36,3.36,0,0,0,.48,0h0c0-.09.1-.18.14-.27l-.12,0a1.18,1.18,0,0,1-.4-.27,3.36,3.36,0,0,0,.48,0l.19,0c0-.09.09-.18.13-.26a1.56,1.56,0,0,1-.3-.07,1,1,0,0,1-.43-.29,3.1,3.1,0,0,0,.51,0l.39,0a.82.82,0,0,0-.56-1.2C9.34,5.05,9,5.9,8.53,7.16a13,13,0,0,0-.7,2.51c-.1.39-.25,1.48,0,1.59s.66-.43.9-.91c.12-.24.31-.68.78-1.48Z"/><path class="cls-1" d="M6.33,8.92a1.41,1.41,0,0,1,.59-2.37c1.49-.53,1.91.9,1.82,1.58A1.37,1.37,0,0,1,6.33,8.92Z"/><path class="cls-1" d="M11.37,7.39A1.33,1.33,0,0,1,12,9.05c-.17.84-1.1.92-1.52.91s-1.55-.4-1-1.9A1.3,1.3,0,0,1,11.37,7.39Z"/><path class="cls-1" d="M7.61,6.86h0a.18.18,0,0,1-.15-.21h0a1,1,0,0,0-.12-.52A.18.18,0,1,1,7.64,6a1.36,1.36,0,0,1,.09.23A.76.76,0,0,1,8,6.11a.18.18,0,1,1,.1.34.37.37,0,0,0-.26.27A.19.19,0,0,1,7.61,6.86Z"/><path class="cls-1" d="M11.09,7.57a.21.21,0,0,1-.11,0,.18.18,0,0,1-.06-.19A.54.54,0,0,0,10.85,7a.19.19,0,0,1,.05-.25.17.17,0,0,1,.25,0,.72.72,0,0,1,.13.34l.1,0a.19.19,0,0,1,.25.08.19.19,0,0,1-.08.24l-.38.19Z"/><path class="cls-1" d="M13.8,13.66c-.06,0-.1,0-.12.05a.86.86,0,0,1,.16,0c.07,0,.14,0,.11.15a.36.36,0,0,0,0,.2c0,.08,0,.12-.09.14s0,0,0,0c-.3,0-.31,0-.3.33,0,.63,0,1.27,0,1.9s0,1.31.06,2a11.39,11.39,0,0,0,.05,1.31c0,.13,0,.2-.17.21h-.23c-2,0-4.07,0-6.1,0s-4,0-6.06,0a7.3,7.3,0,0,0-.81,0c-.2,0-.23,0-.24-.23,0-.71,0-1.41,0-2.11,0-1.38.05-2.75,0-4.13,0-.52,0-1,0-1.57,0-.68,0-1.35-.09-2C.06,9.43,0,9,0,8.61a.25.25,0,0,1,.27-.27H.73l.85,0a.13.13,0,0,0,.15-.12c.19-.79.45-1.55.58-2.36a3,3,0,0,1,.26-.7A16.49,16.49,0,0,1,3.91,2.52a6.38,6.38,0,0,1,.8-1A1.89,1.89,0,0,0,5,1.15.47.47,0,0,1,5.21,1,2.73,2.73,0,0,0,5.46.73.8.8,0,0,1,6,.41.48.48,0,0,0,6.33.26a.79.79,0,0,1,1-.13c.42.29.85.58,1.26.9a4.47,4.47,0,0,1,1,1.18c.3.46.58.93.87,1.4a4.68,4.68,0,0,1,.3.59c.18.43.36.86.55,1.29a7.79,7.79,0,0,1,.32,1.24,6.54,6.54,0,0,1,.17,1.32c0,.1.05.12.14.12h.64l.66,0c.09,0,.15,0,.15.14,0,.57.09,1.14.08,1.72s0,1.29,0,1.94c0,.5.05,1,.05,1.51C13.58,13.64,13.65,13.67,13.8,13.66ZM8.31,8.26c.76,0,1.45,0,2.13,0,.14,0,.18-.05.18-.19a4.94,4.94,0,0,0-.12-.67,15.41,15.41,0,0,0-1-3.52c-.26-.6-.53-1.2-.84-1.77-.15-.28-.33-.55-.47-.84A.64.64,0,0,0,7.66.86l-.13,0C7.26.81,7,.66,6.76.62a.68.68,0,0,0-.57.09A2.09,2.09,0,0,0,5.9,1,21.78,21.78,0,0,0,4.63,3.07a18.21,18.21,0,0,0-.89,2.09,9,9,0,0,0-.67,3.07c0,.08,0,.1.08.09.47,0,.93-.05,1.4-.05.71,0,1.42,0,2.14,0C7.25,8.24,7.82,8.26,8.31,8.26Z"/></g></g></svg>