<svg xmlns="http://www.w3.org/2000/svg" viewBox="0 0 50 50"><defs><style>.cls-1{fill:#fff;}</style></defs><title>info</title><g id="Layer_2" data-name="Layer 2"><g id="Desktop"><path class="cls-1" d="M25,0A25,25,0,1,0,50,25,25,25,0,0,0,25,0Zm0,11.09a4.24,4.24,0,1,1-4.23,4.23A4.23,4.23,0,0,1,25,11.09Zm5.32,25.33a1.21,1.21,0,0,1-1.21,1.21H20.28a1.21,1.21,0,0,1-1.21-1.21V34.26a1.13,1.13,0,0,1,1.12-1.13h1.13V26.38H20.19a1.12,1.12,0,0,1-1.12-1.13V23.09a1.21,1.21,0,0,1,1.21-1.21h6.58a1.21,1.21,0,0,1,1.21,1.21v10h1a1.21,1.21,0,0,1,1.21,1.21Z"/></g></g></svg>