<svg xmlns="http://www.w3.org/2000/svg" viewBox="0 0 68.82 20.49"><defs><style>.cls-1{fill:#fff;}</style></defs><title>logo9</title><g id="Layer_2" data-name="Layer 2"><g id="Mobile"><path class="cls-1" d="M.49,3A1.67,1.67,0,0,1,0,1.73,1.7,1.7,0,0,1,.48.48,1.7,1.7,0,0,1,1.73,0,1.64,1.64,0,0,1,3,.48a1.69,1.69,0,0,1,.47,1.25A1.7,1.7,0,0,1,3,3a1.64,1.64,0,0,1-1.23.5A1.7,1.7,0,0,1,.49,3Zm-.19,13a.26.26,0,0,1-.08-.19V5A.25.25,0,0,1,.3,4.82a.22.22,0,0,1,.18-.08H3.05a.25.25,0,0,1,.19.08A.24.24,0,0,1,3.31,5V15.75a.25.25,0,0,1-.07.19.29.29,0,0,1-.19.08H.48A.25.25,0,0,1,.3,15.94Z"/><path class="cls-1" d="M6.82,15.69a3.64,3.64,0,0,1-1.49-1.42,4.11,4.11,0,0,1-.53-2.09v-.64a.27.27,0,0,1,.08-.19.25.25,0,0,1,.19-.07H7.59a.24.24,0,0,1,.26.26V12a1.62,1.62,0,0,0,.36,1.1,1.08,1.08,0,0,0,.87.42,1.14,1.14,0,0,0,.88-.4,1.51,1.51,0,0,0,.35-1A1.58,1.58,0,0,0,9.87,11,12.86,12.86,0,0,0,8.16,9.59c-.73-.53-1.32-1-1.78-1.41A5.56,5.56,0,0,1,5.22,6.67a4.34,4.34,0,0,1-.48-2.08,4,4,0,0,1,1.16-3A4.28,4.28,0,0,1,9,.48a4.22,4.22,0,0,1,3.11,1.17A4.1,4.1,0,0,1,13.25,4.7v.52a.24.24,0,0,1-.08.19.24.24,0,0,1-.18.07H10.46a.24.24,0,0,1-.18-.07.27.27,0,0,1-.08-.19V4.63a1.64,1.64,0,0,0-.34-1.09A1.1,1.1,0,0,0,9,3.14a1.08,1.08,0,0,0-.85.38,1.59,1.59,0,0,0-.33,1.07,1.78,1.78,0,0,0,.42,1.16,9.81,9.81,0,0,0,1.64,1.4c.91.68,1.59,1.22,2.05,1.64A4.71,4.71,0,0,1,13,10.17,4,4,0,0,1,13.36,12a4.05,4.05,0,0,1-1.18,3.07,4.31,4.31,0,0,1-3.12,1.14A4.86,4.86,0,0,1,6.82,15.69Z"/><path class="cls-1" d="M20.69,4.83a.29.29,0,0,1,.13.33L20.4,7.72q0,.24-.3.18a1.76,1.76,0,0,0-.6-.09,1.62,1.62,0,0,0-.57.09,1.2,1.2,0,0,0-.81.6,2.35,2.35,0,0,0-.31,1.2v6a.24.24,0,0,1-.26.26H15a.24.24,0,0,1-.18-.07.27.27,0,0,1-.08-.19V5a.25.25,0,0,1,.08-.18A.22.22,0,0,1,15,4.74h2.57a.24.24,0,0,1,.19.08.24.24,0,0,1,.07.18v.86c0,.06,0,.09,0,.1s0,0,.07-.06a2,2,0,0,1,1.85-1.29A1.63,1.63,0,0,1,20.69,4.83Z"/><path class="cls-1" d="M29.3,5.52a4.19,4.19,0,0,1,.78,2.73v4.26a4.27,4.27,0,0,1-.77,2.7,2.7,2.7,0,0,1-2.28,1,2.55,2.55,0,0,1-2-.83.1.1,0,0,0-.08,0,.08.08,0,0,0,0,.08v.35a.25.25,0,0,1-.07.19.29.29,0,0,1-.19.08H22.09a.25.25,0,0,1-.18-.08.22.22,0,0,1-.08-.19V.92a.25.25,0,0,1,.08-.19.24.24,0,0,1,.18-.07h2.57a.28.28,0,0,1,.19.07.28.28,0,0,1,.07.19V5.38a0,0,0,0,0,0,0,.26.26,0,0,0,.17-.11A2.56,2.56,0,0,1,27,4.56,2.76,2.76,0,0,1,29.3,5.52ZM26.7,7.57A.93.93,0,0,0,26,7.22a1,1,0,0,0-.68.26,1.2,1.2,0,0,0-.35.7v4.39a1.17,1.17,0,0,0,.35.7,1,1,0,0,0,.68.27.93.93,0,0,0,.75-.35,1.4,1.4,0,0,0,.28-.9V8.47A1.36,1.36,0,0,0,26.7,7.57Z"/><path class="cls-1" d="M31.91,3a1.67,1.67,0,0,1-.49-1.24A1.7,1.7,0,0,1,31.9.48,1.7,1.7,0,0,1,33.15,0a1.67,1.67,0,0,1,1.24.48,1.73,1.73,0,0,1,.47,1.25A1.7,1.7,0,0,1,34.38,3a1.64,1.64,0,0,1-1.23.5A1.68,1.68,0,0,1,31.91,3Zm-.22,13a.26.26,0,0,1-.08-.19V5a.25.25,0,0,1,.08-.18.22.22,0,0,1,.19-.08h2.56a.22.22,0,0,1,.19.08.25.25,0,0,1,.08.18V15.75a.27.27,0,0,1-.27.27H31.88A.26.26,0,0,1,31.69,15.94Zm2.49,4.29V18.1c0-.18.1-.26.29-.24a1.72,1.72,0,0,0,1.38-.45A2.15,2.15,0,0,0,36.24,16V5a.25.25,0,0,1,.08-.18.22.22,0,0,1,.19-.08h2.56a.22.22,0,0,1,.19.08.25.25,0,0,1,.08.18V16a8.6,8.6,0,0,1-.3,2.56A2.42,2.42,0,0,1,37.69,20a7.73,7.73,0,0,1-3.25.48A.23.23,0,0,1,34.18,20.23ZM36.56,3a1.67,1.67,0,0,1-.49-1.24A1.7,1.7,0,0,1,36.55.48a1.87,1.87,0,0,1,2.5,0,1.7,1.7,0,0,1,.48,1.25,1.75,1.75,0,0,1-3,1.24Z"/><path class="cls-1" d="M48.11,5.57a3.34,3.34,0,0,1,1.16,2.66v7.52a.25.25,0,0,1-.07.19A.27.27,0,0,1,49,16H46.44a.25.25,0,0,1-.18-.08.26.26,0,0,1-.08-.19v-.48a.1.1,0,0,0,0-.09s-.06,0-.09.05a2.79,2.79,0,0,1-2.24,1,3.53,3.53,0,0,1-2.2-.7,3.17,3.17,0,0,1-.94-2.68A3.18,3.18,0,0,1,41.8,10a5.82,5.82,0,0,1,3.26-.76h1a.1.1,0,0,0,.11-.11V8.58a1.5,1.5,0,0,0-.32-1,1,1,0,0,0-.8-.38.84.84,0,0,0-.62.23,1,1,0,0,0-.32.65.26.26,0,0,1-.29.26l-2.63,0c-.18,0-.26-.09-.26-.27a3.47,3.47,0,0,1,1.25-2.55,4.33,4.33,0,0,1,2.89-1A4.45,4.45,0,0,1,48.11,5.57Zm-2.34,7.89a1.14,1.14,0,0,0,.41-.91v-1a.1.1,0,0,0-.11-.11h-.9a1.32,1.32,0,0,0-1,.34,1.23,1.23,0,0,0-.37.93,1.15,1.15,0,0,0,.28.83,1,1,0,0,0,.73.29A1.36,1.36,0,0,0,45.77,13.46Z"/><path class="cls-1" d="M55.87.73a.24.24,0,0,1,.18-.07h2.57a.28.28,0,0,1,.19.07.28.28,0,0,1,.07.19V15.75a.25.25,0,0,1-.07.19.29.29,0,0,1-.19.08H56.05a.25.25,0,0,1-.18-.08.26.26,0,0,1-.08-.19V15.4s0-.07,0-.08a.12.12,0,0,0-.09,0,2.55,2.55,0,0,1-2,.83,2.7,2.7,0,0,1-2.28-1,4.27,4.27,0,0,1-.77-2.7V8.25a4.19,4.19,0,0,1,.78-2.73,2.76,2.76,0,0,1,2.27-1,3.15,3.15,0,0,1,1,.19,2.37,2.37,0,0,1,1,.67.09.09,0,0,0,.09,0s0,0,0-.07V.92A.29.29,0,0,1,55.87.73Zm-.43,12.54a1.12,1.12,0,0,0,.35-.7V8.18a1.15,1.15,0,0,0-.35-.7,1,1,0,0,0-.68-.26.93.93,0,0,0-.75.35,1.36,1.36,0,0,0-.28.9v3.82a1.4,1.4,0,0,0,.28.9.93.93,0,0,0,.75.35A1,1,0,0,0,55.44,13.27Z"/><path class="cls-1" d="M67.66,5.57a3.38,3.38,0,0,1,1.16,2.66v7.52a.25.25,0,0,1-.07.19.29.29,0,0,1-.19.08H66a.29.29,0,0,1-.19-.08.25.25,0,0,1-.07-.19v-.48a.11.11,0,0,0,0-.09s-.05,0-.08.05a2.81,2.81,0,0,1-2.24,1,3.58,3.58,0,0,1-2.21-.7,3.2,3.2,0,0,1-.93-2.68A3.18,3.18,0,0,1,61.35,10a5.8,5.8,0,0,1,3.26-.76h1a.1.1,0,0,0,.11-.11V8.58a1.5,1.5,0,0,0-.32-1,1,1,0,0,0-.8-.38.88.88,0,0,0-.63.23,1.08,1.08,0,0,0-.31.65.26.26,0,0,1-.29.26l-2.63,0a.24.24,0,0,1-.27-.27,3.48,3.48,0,0,1,1.26-2.55,4.33,4.33,0,0,1,2.89-1A4.49,4.49,0,0,1,67.66,5.57Zm-2.34,7.89a1.14,1.14,0,0,0,.41-.91v-1a.1.1,0,0,0-.11-.11h-.9a1.34,1.34,0,0,0-1,.34,1.23,1.23,0,0,0-.36.93,1.11,1.11,0,0,0,.28.83,1,1,0,0,0,.73.29A1.36,1.36,0,0,0,65.32,13.46Z"/></g></g></svg>