<svg xmlns="http://www.w3.org/2000/svg" viewBox="0 0 14.77 21.35"><defs><style>.cls-1{fill:#e73228;}</style></defs><title>mapica3_1</title><g id="Layer_2" data-name="Layer 2"><g id="Mobile"><path class="cls-1" d="M14.73,15s0,.05,0,.08a.27.27,0,0,1-.16.32.21.21,0,0,0-.1.11.65.65,0,0,1-.32.35.31.31,0,0,0-.19.33.2.2,0,0,1-.17.2l-.07,0c-.09.07-.17,0-.25,0a.15.15,0,0,0-.21,0s0,0-.08,0a.08.08,0,0,0-.12.05.32.32,0,0,1-.19.17c-.1,0-.11.07-.07.17a.92.92,0,0,0,.15.25.09.09,0,0,1,0,.11.43.43,0,0,0-.09.26,1.18,1.18,0,0,1-.07.41c0,.06,0,.11.06.12a.15.15,0,0,1,.1.09.25.25,0,0,0,.12.11.16.16,0,0,1,.09.21,2.1,2.1,0,0,1-.06.24.15.15,0,0,1-.12.14c-.09,0-.11.12-.13.19s0,.13-.15.12a.7.7,0,0,0-.18.05.21.21,0,0,1-.23-.19c0-.05,0-.07-.06-.05s-.12,0-.15.1a.07.07,0,0,1-.08.05.15.15,0,0,0-.16.08c0,.05-.08,0-.11,0a.81.81,0,0,1-.38.07.12.12,0,0,1-.1,0,.65.65,0,0,0-.16-.13c-.07,0-.11,0-.13,0s0,.16-.17.08-.13-.07-.21,0l-.19.19s-.05,0-.08,0a.1.1,0,0,0-.1,0,.11.11,0,0,1-.15.05l-.27-.08h0c-.14.07-.23,0-.34-.07s-.24,0-.24.17c-.05,0-.08-.07-.13,0a.21.21,0,0,0-.1.11s0,.08-.1.1,0,.1-.06.15a.3.3,0,0,0,0,.26s0,.05,0,.05,0,0-.06,0-.21.06-.22-.12h0c0-.1-.27-.37-.38-.37s-.14.08-.2.14a.52.52,0,0,1-.35.18.22.22,0,0,0-.17.11c0,.06-.09.07-.15.09a.47.47,0,0,0-.36.18.55.55,0,0,0-.07.4c0,.14.11.29,0,.43s-.06.11-.14.12-.07,0-.1,0a.07.07,0,0,0-.11,0c-.06.06-.1,0-.14,0a.16.16,0,0,1,0-.25.18.18,0,0,0,.06-.22c-.07-.15-.06-.33-.2-.44s0-.12,0-.17a1.18,1.18,0,0,0-.1-.38,1.08,1.08,0,0,0-.19-.35.31.31,0,0,0-.17-.13,1.52,1.52,0,0,1-.34-.22s-.06-.05-.09,0-.13,0-.2,0S4.94,19.07,5,19s0-.14-.07-.19-.06-.07,0-.12,0-.08,0-.1-.11-.19-.16-.29a.31.31,0,0,0-.16-.14.22.22,0,0,1-.17-.26.17.17,0,0,0,0-.07.18.18,0,0,1,0-.23c.05-.05.05-.09,0-.13a.75.75,0,0,0-.14-.12.31.31,0,0,1-.14-.25c0-.13.13-.19.26-.13a.29.29,0,0,0,.22.06s0,0,0,0A.23.23,0,0,0,5,16.84a.14.14,0,0,1,.17-.14c.11,0,.14,0,.12-.13a.22.22,0,0,1,0-.16.14.14,0,0,0-.09-.16A2.4,2.4,0,0,1,4.78,16l-.07,0c-.06-.06-.11-.11-.18,0a.05.05,0,0,1-.08,0c-.07-.06-.15-.1-.18-.19s0,0,0-.06A.46.46,0,0,1,4,15.39c0-.1-.07-.1-.13,0s-.08.05-.14,0-.13-.07-.2,0,0,0,0,0a.08.08,0,0,0-.07,0,.11.11,0,0,1-.1-.11c0-.08,0-.11-.12-.12a.65.65,0,0,1-.37-.14.25.25,0,0,1,0-.07.34.34,0,0,0-.22-.19c-.11-.05-.16-.09-.14-.21s0-.14-.11-.16a.2.2,0,0,1-.15-.17c0-.11-.09-.2-.21-.22s0,0,0,0c-.17-.11-.35-.21-.53-.31s-.08-.14-.08-.22h0c.14-.06.06-.19.09-.29s.08-.12.16-.07a.15.15,0,0,0,.16,0s.06-.07.1,0,.1.08.09.15,0,.06,0,.08,0,.08.09,0l.06-.07a.12.12,0,0,1,.15,0,.08.08,0,0,0,.11,0s0-.07,0-.11-.08-.13,0-.2a.11.11,0,0,0,0-.08c0-.15,0-.3-.12-.42h0c0-.17-.19-.25-.31-.35a3.21,3.21,0,0,1-.21-.3c-.09-.12-.14-.26-.23-.38a.54.54,0,0,1-.12-.31c.13.08.27.08.38.16a1.08,1.08,0,0,0,.5.12A.25.25,0,0,0,2.51,11a.29.29,0,0,1,.15-.12.1.1,0,0,0,.06-.13s0-.1,0-.14-.05-.12-.11,0,0,0,0,0-.2-.08-.23-.21-.11-.09-.09-.19,0,0-.07,0-.11,0-.12-.06a.11.11,0,0,0-.08-.09c-.14,0-.16-.14-.18-.27a.3.3,0,0,0-.22-.25.12.12,0,0,0-.1,0c-.06.06-.12,0-.15,0s0-.08-.11,0S1,9.4,1,9.34s0-.08-.05-.12A.19.19,0,0,1,1,9c.12-.09.1-.2.07-.32S1,8.54,1,8.49s0-.12.09-.14.16-.14.15-.21a.06.06,0,0,1,0-.09c.11-.12.17-.27.27-.39s.12-.22.2-.32a.1.1,0,0,0,0-.07c0-.09,0-.17,0-.25s.1-.24.09-.38,0,0,0-.06a.68.68,0,0,0-.26-.12c-.08,0-.18-.07-.26,0s-.05,0-.06,0-.08-.07-.14,0l-.34.24c-.05,0-.12.08-.17,0A.27.27,0,0,1,.51,6.5s0,0,.07,0l.09,0a.09.09,0,0,0,.15,0A.28.28,0,0,1,1,6.33a.11.11,0,0,0,.07-.16C1,6.07,1,6.09.9,6.11s-.08,0-.11,0,0,0,0-.08a.66.66,0,0,0,0-.46s0,0,0,0-.07-.1,0-.16.1,0,.15,0a.1.1,0,0,0,.09,0l.07-.07c.06-.07.13-.14,0-.22.05,0,.07,0,.09,0s.18.07.27.1.05,0,0-.07,0-.08,0-.09.05,0,.07,0a.4.4,0,0,0,.42.12s0,0,0,0a.21.21,0,0,0-.17-.29,1.46,1.46,0,0,1-.84-.23.63.63,0,0,1-.23-.23.27.27,0,0,0-.21-.15.28.28,0,0,1-.17-.09c0-.06,0-.1,0-.13s.17-.1,0-.2a.15.15,0,0,1-.06-.19c0-.06.06-.09.13-.06l.08,0a.15.15,0,0,0,.16-.11c0-.07,0-.12-.07-.15A.71.71,0,0,1,.6,3.19s-.09,0-.13,0a.14.14,0,0,1-.11.07l-.06,0c0-.1-.08-.13-.14-.17A.11.11,0,0,1,.2,3a.29.29,0,0,0,.14-.25,0,0,0,0,1,0,0c.08-.1.07-.13,0-.2a.19.19,0,0,1-.11-.09s.06,0,.09,0a.12.12,0,0,0,.08,0,.08.08,0,0,0,0-.1c-.06,0,.08-.17-.07-.18a.55.55,0,0,1-.31-.08s0,0,0-.06,0,0,.06,0a.15.15,0,0,0,.14-.2c0-.07-.08-.06-.13,0s0,.05-.07,0,0-.05,0-.08,0-.12.1-.15,0-.06,0-.09,0-.08,0-.13.15-.11.24-.09,0,0,.07,0,.11,0,.1-.08.06-.1.13-.1S.79,1.13.77,1A.27.27,0,0,1,.87.76c0-.05.08,0,.1,0s.09.18.27.16a.82.82,0,0,1,.27,0s0,0,.06,0,0,0,0-.06,0-.09,0-.11L1.74.71s.05,0,.07,0,.09,0,.13,0A.49.49,0,0,0,2.18.47s0-.06.09-.08.15-.06.08-.16,0,0,0,0S2.52,0,2.69.06a.12.12,0,0,0,.08,0A.26.26,0,0,1,3.13.1c.07.09.18.11.27.16a0,0,0,0,0,.07,0c.1-.09.24-.11.34-.18S4,0,4.1,0s0,0,.05.07.13.11.18,0,.1-.08.15,0,.11.09.18,0,.08,0,.11,0A.56.56,0,0,0,5,.32H5c0,.14.19.19.24.31a2.17,2.17,0,0,1,.07.24.31.31,0,0,0,.3.23.17.17,0,0,1,.18.11s0,.08,0,.12.06.15.21.1,0,0,0,0,.07.12.13.16.19.1.16.24,0,0,0,.06a.28.28,0,0,1,.13.2s0,.06.08,0,.23.06.27-.11.06,0,.08,0a.14.14,0,0,1,0,.09.59.59,0,0,0,0,.43.27.27,0,0,1,0,.15A.26.26,0,0,0,6.79,3s0,.09.09.11.09.13.12.2,0,.08-.08.11l-.08,0s0,.07,0,.11,0,.05.07.06H7c.1,0,.16.06.15.17a.08.08,0,0,0,0,.1.29.29,0,0,1,.19.17c0,.09.14.15.21.23s.09.12.19.1.07.07.13.09a.19.19,0,0,0,.25,0c.05-.05.07,0,.08,0s.1.14.1.23.22.16.28.14.15,0,.22,0a.28.28,0,0,0,.13,0,.56.56,0,0,1,.38.21l0,0c.12.09.11.13,0,.21a.1.1,0,0,0-.06.12c0,.12-.09.19-.1.3s0,0-.06,0H9.08c-.19.07-.17.08-.06.24s.32.2.49.29a.18.18,0,0,1,.08.15c0,.07-.05.07-.08.09s-.3,0-.46.07-.12,0-.14.08-.06.14,0,.2A.16.16,0,0,1,9,7a.19.19,0,0,0,.2.15h.25c.24,0,.33.07.36.3a.58.58,0,0,0,0,.19c0,.11.08.14.18.1a.67.67,0,0,1,.2,0,1.92,1.92,0,0,1,.48.07l.42.05a.19.19,0,0,1,.16.19c0,.12,0,.21.13.27s0,.06.07.1a.28.28,0,0,0,.26.18c.12,0,.16-.08.2-.18s.1-.25.16-.37a.26.26,0,0,1,.15-.16s.07-.07.08-.11.06-.12.14-.11a.22.22,0,0,0,.18-.1c.11-.13.2-.13.33,0l.23.24a.26.26,0,0,0,.24.1.75.75,0,0,1,.21,0,.32.32,0,0,1,.21.18c0,.05.06.11,0,.17a.18.18,0,0,1-.22,0l-.13-.09c-.17-.11-.31,0-.33.15a.17.17,0,0,1-.18.17h-.1c-.07,0-.09,0-.07.11a.06.06,0,0,0,0,0,1.42,1.42,0,0,1,.19.48.38.38,0,0,0,.33.3h0c.09,0,.21,0,.23.12a.34.34,0,0,1-.09.31.38.38,0,0,0-.12.27c0,.11,0,.21,0,.32s-.09.12-.16.14-.14,0-.14.12-.05,0-.08.05-.21,0-.3.07a.12.12,0,0,0-.06.12.46.46,0,0,1-.06.28.19.19,0,0,0,0,.07.85.85,0,0,1-.1.47.11.11,0,0,0,0,.11.86.86,0,0,1,.16.41.39.39,0,0,0,.23.31.12.12,0,0,1,.07.13,1.29,1.29,0,0,0,.15.72.71.71,0,0,0,.34.27c.07,0,.14,0,.16.12s.07.06.12.06a.25.25,0,0,1,.25.15.12.12,0,0,0,.08.09.39.39,0,0,1,.17.23.82.82,0,0,0,.37.45h.11C14.74,14.9,14.81,14.92,14.73,15Z"/></g></g></svg>