<svg xmlns="http://www.w3.org/2000/svg" viewBox="0 0 14 19.76"><defs><style>.cls-1{fill:#fff;}</style></defs><title>mapisa2</title><g id="Layer_2" data-name="Layer 2"><g id="Mobile"><path class="cls-1" d="M14,13.88A.08.08,0,0,0,14,14a.26.26,0,0,1-.16.3.2.2,0,0,0-.09.09.56.56,0,0,1-.31.33.3.3,0,0,0-.17.31.22.22,0,0,1-.16.19H13c-.09.07-.16,0-.24,0a.14.14,0,0,0-.2,0s0,0-.07,0-.09,0-.12,0a.26.26,0,0,1-.18.16c-.09,0-.1.07-.07.15a1,1,0,0,0,.15.24s0,.06,0,.1a.39.39,0,0,0-.09.24,1.26,1.26,0,0,1-.06.38c0,.06,0,.1.06.11a.18.18,0,0,1,.09.08.23.23,0,0,0,.11.11c.1,0,.11.11.09.19a2,2,0,0,1-.06.23.14.14,0,0,1-.11.12c-.09,0-.11.11-.12.18s0,.12-.14.11a.61.61,0,0,0-.18,0c-.08,0-.22-.09-.21-.18s0-.06-.06,0-.11,0-.14.09a.1.1,0,0,1-.08.05.13.13,0,0,0-.15.07c0,.05-.08,0-.11,0a.71.71,0,0,1-.35.07.12.12,0,0,1-.1,0,.67.67,0,0,0-.16-.12c-.06-.05-.1,0-.11,0s-.06.14-.17.07a.13.13,0,0,0-.2,0c0,.06-.12.12-.18.18a.08.08,0,0,1-.07,0,.08.08,0,0,0-.1.05c0,.06-.08.06-.14,0L9.27,18h0c-.12.07-.21,0-.32-.06s-.23,0-.23.16-.07-.06-.12,0-.07.06-.1.11,0,.07-.09.08,0,.1-.05.15-.09.14-.05.23,0,.05,0,.05l-.05,0c-.15.08-.2,0-.21-.11H8a.65.65,0,0,0-.35-.34c-.09,0-.14.07-.2.12a.52.52,0,0,1-.33.18.18.18,0,0,0-.16.09c0,.06-.08.07-.14.08s-.27.05-.34.17a.5.5,0,0,0-.07.38c0,.13.11.26,0,.39s-.05.11-.13.11-.06,0-.09,0a.07.07,0,0,0-.11,0c-.06.05-.1,0-.13,0a.15.15,0,0,1,0-.24.16.16,0,0,0,.05-.2c-.06-.13-.06-.3-.19-.41s0-.1,0-.16a2.3,2.3,0,0,0-.1-.35A1,1,0,0,0,5.52,18a.29.29,0,0,0-.16-.13,2.23,2.23,0,0,1-.33-.2s0,0-.09,0-.12,0-.18,0-.08-.06-.06-.1,0-.13-.06-.18-.06-.07,0-.11a.06.06,0,0,0,0-.09c-.09-.07-.11-.18-.16-.27a.24.24,0,0,0-.15-.13.21.21,0,0,1-.16-.24.17.17,0,0,0,0-.07.17.17,0,0,1,0-.21s0-.08,0-.12a.38.38,0,0,0-.14-.11.28.28,0,0,1-.12-.23c0-.12.12-.18.24-.12a.26.26,0,0,0,.21,0h0c.19.1.36,0,.36-.2a.14.14,0,0,1,.16-.13c.1,0,.13,0,.11-.12a.38.38,0,0,1,0-.15q0-.11-.09-.15a2.69,2.69,0,0,1-.43-.19l-.06,0c-.06-.06-.11-.11-.18,0s0,0-.07,0-.15-.09-.17-.18a.1.1,0,0,0,0,0,.43.43,0,0,1-.22-.32c0-.09-.06-.09-.12,0a.1.1,0,0,1-.14,0s-.11-.07-.18,0,0,0-.05,0a.09.09,0,0,0-.07,0A.1.1,0,0,1,3.14,14c0-.07,0-.1-.12-.11a.62.62,0,0,1-.34-.13s0,0,0-.06a.34.34,0,0,0-.21-.18c-.11-.05-.15-.09-.13-.19s0-.13-.11-.15a.21.21,0,0,1-.14-.16c0-.1-.08-.18-.2-.2h0c-.16-.1-.33-.19-.5-.28s-.07-.13-.08-.21h0c.13-.06.06-.18.08-.27s.08-.11.16-.07a.12.12,0,0,0,.15,0s.06-.06.09,0,.1.07.09.14a.11.11,0,0,0,0,.08s0,.06.08,0L2,12.14a.11.11,0,0,1,.15,0,.08.08,0,0,0,.1,0s0-.07,0-.1-.07-.12,0-.19a.06.06,0,0,0,0-.07c0-.14,0-.28-.1-.39h0c0-.16-.18-.23-.29-.33a1.89,1.89,0,0,1-.2-.27c-.08-.11-.13-.24-.22-.35a.49.49,0,0,1-.11-.29c.13.07.26.07.36.15a1.08,1.08,0,0,0,.47.11.24.24,0,0,0,.26-.13.3.3,0,0,1,.14-.11s.08-.06,0-.12a.61.61,0,0,0,0-.13s0-.11-.11,0,0,0,0,0-.19-.07-.22-.19-.1-.09-.08-.18,0,0-.07,0-.11,0-.12-.06a.07.07,0,0,0-.07-.07c-.13,0-.15-.14-.17-.25a.29.29,0,0,0-.21-.24.09.09,0,0,0-.09,0q-.1.08-.15,0c0-.05,0-.08-.1-.05S.94,8.7.94,8.64s0-.07,0-.1a.19.19,0,0,1,0-.26A.23.23,0,0,0,1,8s0-.09,0-.13,0-.11.08-.13a.19.19,0,0,0,.14-.19.09.09,0,0,1,0-.09c.11-.11.16-.25.26-.36s.12-.2.19-.29,0,0,0-.07,0-.16,0-.23.09-.23.08-.35,0-.05,0-.06A.91.91,0,0,0,1.48,6c-.08,0-.17-.06-.25,0s0,0-.06,0-.07-.06-.12,0a3.88,3.88,0,0,0-.33.23s-.11.06-.16,0A.23.23,0,0,1,.48,6s0,0,.07,0L.64,6c.06,0,.11,0,.14,0a.28.28,0,0,1,.15-.13c.06,0,.1-.07.06-.15s-.08-.07-.14,0-.07,0-.1,0,0,0,0-.08a.61.61,0,0,0,0-.42s0,0,0,0S.74,5,.77,5,.86,5,.91,5a.11.11,0,0,0,.09,0l.06-.07c.06-.07.13-.13,0-.21a.06.06,0,0,1,.08,0c.07.08.17.07.26.09s.05,0,0-.06,0-.07,0-.08.05,0,.07,0A.38.38,0,0,0,2,4.78s0,0,0,0a.19.19,0,0,0-.16-.27A1.44,1.44,0,0,1,1,4.26.54.54,0,0,1,.8,4a.22.22,0,0,0-.19-.13.24.24,0,0,1-.16-.09s0-.09,0-.12.15-.09,0-.18a.13.13,0,0,1,0-.18.08.08,0,0,1,.12-.06l.08,0a.14.14,0,0,0,.15-.1.11.11,0,0,0-.07-.14A.39.39,0,0,1,.57,3,.08.08,0,0,0,.45,3S.39,3,.34,3,.29,3,.29,3,.21,2.89.15,2.85a.11.11,0,0,1,0-.06.25.25,0,0,0,.13-.23l0,0c.08-.09.07-.11,0-.18s-.08,0-.1-.08.06,0,.09,0,0,0,.07,0,.06-.06,0-.08S.49,2,.34,2A.48.48,0,0,1,.05,2s0,0,0-.05,0,0,.05,0A.14.14,0,0,0,.21,1.7c0-.07-.08-.05-.13,0s0,.05-.06,0,0-.05,0-.07S0,1.52.1,1.5s0-.05,0-.08,0-.08,0-.13.14-.09.23-.08,0,0,.07,0,.1,0,.09-.08S.56,1,.62,1,.75,1,.73.93A.24.24,0,0,1,.82.7s.08,0,.1,0,.09.17.26.14a1.06,1.06,0,0,1,.25,0s0,0,.06,0,0,0,0-.06,0-.08,0-.1L1.65.66s.05,0,.07,0a.09.09,0,0,0,.12,0A.47.47,0,0,0,2.07.44s.05-.06.08-.08.14,0,.08-.14a0,0,0,0,1,0,0c.11,0,.16-.19.32-.12a0,0,0,0,0,.07,0A.26.26,0,0,1,3,.09a.92.92,0,0,0,.25.15,0,0,0,0,0,.07,0c.1-.08.22-.1.32-.17a.44.44,0,0,1,.28,0s0,0,0,.06.11.1.16,0,.1-.07.15,0,.1.09.17,0,.08,0,.1,0a.47.47,0,0,0,.19.12h0c0,.13.18.18.23.3A1.72,1.72,0,0,1,5,.81.29.29,0,0,0,5.32,1a.15.15,0,0,1,.17.1.36.36,0,0,0,0,.11c0,.13,0,.14.2.09s0,0,0,0,.06.11.12.15.18.09.15.22,0,0,0,.05A.24.24,0,0,1,6.19,2s0,0,.08,0,.22.06.25-.1.06,0,.08,0a.06.06,0,0,1,0,.07.64.64,0,0,0,0,.41.2.2,0,0,1,0,.13c0,.06-.09.11-.07.2s0,.08.08.1S6.6,3,6.64,3s0,.08-.08.11l-.07,0s0,.07,0,.11,0,0,.07,0h.12a.14.14,0,0,1,.14.16.08.08,0,0,0,0,.09A.28.28,0,0,1,7,3.75a1,1,0,0,0,.2.21s.08.12.18.09.07.07.12.09a.18.18,0,0,0,.24,0c0-.05.06,0,.07,0s.09.14.1.22.21.15.26.13a.23.23,0,0,1,.21,0,.28.28,0,0,0,.12,0,.5.5,0,0,1,.36.19l0,0c.11.09.11.13,0,.2a.1.1,0,0,0-.07.11c0,.11-.08.18-.08.28s0,0-.06,0H8.61c-.18.06-.16.07-.06.22s.31.18.46.27.07.08.08.14,0,.06-.07.08a.94.94,0,0,1-.44.06c-.06,0-.11,0-.13.08s-.06.13,0,.18,0,.06,0,.09a.19.19,0,0,0,.2.13H9c.23,0,.31.06.34.28a.86.86,0,0,0,0,.17.12.12,0,0,0,.17.1.61.61,0,0,1,.19,0,1.76,1.76,0,0,1,.46.06l.39,0a.17.17,0,0,1,.16.17.22.22,0,0,0,.12.25.13.13,0,0,1,.06.1.27.27,0,0,0,.25.16c.11,0,.15-.08.19-.16s.1-.23.16-.35a.2.2,0,0,1,.13-.14.15.15,0,0,0,.08-.11.12.12,0,0,1,.14-.1A.24.24,0,0,0,12,7c.1-.12.18-.12.3,0l.23.22a.28.28,0,0,0,.23.1.61.61,0,0,1,.19,0,.34.34,0,0,1,.21.16c0,.06,0,.11,0,.16a.18.18,0,0,1-.21,0l-.12-.08c-.17-.1-.29,0-.32.14s-.06.15-.17.15h-.09c-.07,0-.09,0-.07.11l0,0a1.74,1.74,0,0,1,.17.45.37.37,0,0,0,.32.28h0c.08,0,.2,0,.22.12a.32.32,0,0,1-.1.28.39.39,0,0,0-.11.26,2.71,2.71,0,0,0,0,.29c0,.1-.08.11-.15.13s-.13,0-.13.11,0,0-.08,0-.19,0-.28.06a.13.13,0,0,0-.06.11.34.34,0,0,1-.06.26.17.17,0,0,0,0,.07.74.74,0,0,1-.1.43.12.12,0,0,0,0,.1,1,1,0,0,1,.16.39.34.34,0,0,0,.21.28.11.11,0,0,1,.07.12,1.15,1.15,0,0,0,.14.66.61.61,0,0,0,.32.25c.07,0,.13,0,.15.12s.07.05.12.05a.22.22,0,0,1,.23.14.24.24,0,0,0,.08.09c.1,0,.12.13.16.21a.78.78,0,0,0,.35.41s.07,0,.11,0S14,13.81,14,13.88Z"/></g></g></svg>