<svg xmlns="http://www.w3.org/2000/svg" viewBox="0 0 14.05 16.45"><defs><style>.cls-1{fill:#fff;}</style></defs><title>profile</title><g id="Layer_2" data-name="Layer 2"><g id="Mobile"><path class="cls-1" d="M9.74,1.18A3.9,3.9,0,0,0,6.89,0,3.94,3.94,0,0,0,4,1.18,3.94,3.94,0,0,0,2.85,4,3.9,3.9,0,0,0,4,6.89,3.91,3.91,0,0,0,6.89,8.08,3.87,3.87,0,0,0,9.74,6.89,3.87,3.87,0,0,0,10.93,4,3.91,3.91,0,0,0,9.74,1.18Zm-.69,5a2.93,2.93,0,0,1-2.16.9,2.93,2.93,0,0,1-2.16-.9A2.93,2.93,0,0,1,3.83,4a2.93,2.93,0,0,1,.9-2.16A2.93,2.93,0,0,1,6.89,1a2.93,2.93,0,0,1,2.16.9A2.92,2.92,0,0,1,9.94,4,2.92,2.92,0,0,1,9.05,6.2Z"/><path class="cls-1" d="M9.94,4A2.92,2.92,0,0,1,9.05,6.2a2.93,2.93,0,0,1-2.16.9,2.93,2.93,0,0,1-2.16-.9A2.93,2.93,0,0,1,3.83,4a2.93,2.93,0,0,1,.9-2.16A2.93,2.93,0,0,1,6.89,1a2.93,2.93,0,0,1,2.16.9A2.92,2.92,0,0,1,9.94,4Z"/><path class="cls-1" d="M14,12.58a8.73,8.73,0,0,0-.13-1.06,9.14,9.14,0,0,0-.26-1.06,5.53,5.53,0,0,0-.44-1,3.84,3.84,0,0,0-.66-.86,2.78,2.78,0,0,0-1-.59,3.18,3.18,0,0,0-1.21-.22,1.28,1.28,0,0,0-.66.27L9,8.51a4.1,4.1,0,0,1-.88.39A3.75,3.75,0,0,1,7,9.07,3.69,3.69,0,0,1,5.91,8.9,3.88,3.88,0,0,1,5,8.51l-.69-.45a1.26,1.26,0,0,0-.65-.27A3.14,3.14,0,0,0,2.48,8a2.78,2.78,0,0,0-.95.59,3.84,3.84,0,0,0-.66.86,4.91,4.91,0,0,0-.44,1,7.47,7.47,0,0,0-.26,1.06c-.07.38-.11.73-.14,1.06s0,.65,0,1a2.78,2.78,0,0,0,.83,2.11A3,3,0,0,0,3,16.45H11a3,3,0,0,0,2.13-.77A2.78,2.78,0,0,0,14,13.57C14,13.23,14,12.9,14,12.58ZM13.52,15a2,2,0,0,1-1.45.5H4A2,2,0,0,1,2.54,15,1.83,1.83,0,0,1,2,13.55c0-.31,0-.62,0-.92a9.32,9.32,0,0,1,.13-1,5.88,5.88,0,0,1,.23-.94,3.61,3.61,0,0,1,.35-.81,2.93,2.93,0,0,1,.49-.64,2,2,0,0,1,.63-.39,2.34,2.34,0,0,1,.77-.15l.2.12.69.45a4.84,4.84,0,0,0,1.11.49,4.29,4.29,0,0,0,2.77,0,4.84,4.84,0,0,0,1.11-.49l.69-.45.2-.12a2.34,2.34,0,0,1,.77.15,2,2,0,0,1,.63.39,3.27,3.27,0,0,1,.49.64,4.13,4.13,0,0,1,.35.81,7.19,7.19,0,0,1,.23.94,9.14,9.14,0,0,1,.12,1h0c0,.3,0,.61,0,.92A1.84,1.84,0,0,1,13.52,15Z"/><path class="cls-1" d="M14.05,13.55a1.84,1.84,0,0,1-.53,1.4,2,2,0,0,1-1.45.5H4A2,2,0,0,1,2.54,15,1.83,1.83,0,0,1,2,13.55c0-.31,0-.62,0-.92a9.32,9.32,0,0,1,.13-1,5.88,5.88,0,0,1,.23-.94,3.61,3.61,0,0,1,.35-.81,2.93,2.93,0,0,1,.49-.64,2,2,0,0,1,.63-.39,2.34,2.34,0,0,1,.77-.15l.2.12.69.45a4.84,4.84,0,0,0,1.11.49,4.29,4.29,0,0,0,2.77,0,4.84,4.84,0,0,0,1.11-.49l.69-.45.2-.12a2.34,2.34,0,0,1,.77.15,2,2,0,0,1,.63.39,3.27,3.27,0,0,1,.49.64,4.13,4.13,0,0,1,.35.81,7.19,7.19,0,0,1,.23.94,9.14,9.14,0,0,1,.12,1h0C14,12.93,14.05,13.24,14.05,13.55Z"/></g></g></svg>