<svg xmlns="http://www.w3.org/2000/svg" viewBox="0 0 14.05 16.45"><defs><style>.cls-1{fill:#fff;}</style></defs><title>profile_1</title><g id="Layer_2" data-name="Layer 2"><g id="Mobile"><path class="cls-1" d="M10.93,4A3.91,3.91,0,0,1,9.74,6.89,3.87,3.87,0,0,1,6.89,8.07,3.94,3.94,0,0,1,4,6.89,3.94,3.94,0,0,1,2.85,4,3.93,3.93,0,0,1,4,1.18,3.9,3.9,0,0,1,6.89,0,3.87,3.87,0,0,1,9.74,1.18,3.9,3.9,0,0,1,10.93,4Z"/><path class="cls-1" d="M14.05,13.55a9,9,0,0,0,0-.92,9.31,9.31,0,0,0-.12-1,8.08,8.08,0,0,0-.23-.94,1.57,1.57,0,0,0-.09-.23,9,9,0,0,1,.25,1A8.49,8.49,0,0,1,14,12.58c0,.32,0,.65,0,1a3.22,3.22,0,0,1-.1.84A2.1,2.1,0,0,0,14.05,13.55Z"/><path class="cls-1" d="M14,13.57a3.22,3.22,0,0,1-.1.84,2.58,2.58,0,0,1-.73,1.26,3,3,0,0,1-2.13.78H3a3,3,0,0,1-2.13-.78A2.77,2.77,0,0,1,0,13.57q0-.51,0-1c0-.33.07-.69.14-1.06a8,8,0,0,1,.26-1.07,4.83,4.83,0,0,1,.44-1,3.84,3.84,0,0,1,.66-.86,3,3,0,0,1,1-.6,3.34,3.34,0,0,1,1.21-.22,1.21,1.21,0,0,1,.65.28L5,8.5a3.88,3.88,0,0,0,.88.39A3.4,3.4,0,0,0,7,9.07a3.46,3.46,0,0,0,1.09-.18A4.1,4.1,0,0,0,9,8.5l.68-.44a1.23,1.23,0,0,1,.66-.28A3.38,3.38,0,0,1,11.51,8a3,3,0,0,1,1,.6,3.84,3.84,0,0,1,.66.86,4.83,4.83,0,0,1,.39.87.85.85,0,0,1,.06.17,9,9,0,0,1,.25,1A8.49,8.49,0,0,1,14,12.58C14,12.9,14,13.23,14,13.57Z"/><path class="cls-1" d="M13.89,14.41a3.22,3.22,0,0,0,.1-.84c0-.34,0-.67,0-1a8.49,8.49,0,0,0-.13-1.06,9,9,0,0,0-.25-1,1.57,1.57,0,0,1,.09.23,8.08,8.08,0,0,1,.23.94,9.31,9.31,0,0,1,.12,1,9,9,0,0,1,0,.92A2.1,2.1,0,0,1,13.89,14.41Z"/></g></g></svg>