<svg xmlns="http://www.w3.org/2000/svg" viewBox="0 0 302.17 185.16"><defs><style>.cls-1{fill:#88f2f0;stroke:#2e3191;stroke-miterlimit:10;stroke-width:4px;}</style></defs><title>srem</title><g id="Layer_2" data-name="Layer 2"><g id="Layer_1-2" data-name="Layer 1"><path class="cls-1" d="M61.06,4.83c8.09,1.15,15.47,5.89,24,4.76,10.85,6.32,20.44.17,30.23-3.25a16.14,16.14,0,0,1,5.18-.66c8.11-.21,16.22.53,24-3.36,2.12-1.06,5.73.81,8.65,1.4,7.35,1.49,14.83.42,22.2,1.07,11.53,1,22.71-2.08,34.16-2.25,9.93-.15,17.54,4.82,25.67,9,1,.5,1.43,1.87,2.71,1.89,8,.17,14.53,4.88,21.83,7.22a17.76,17.76,0,0,0,7.16.54,19,19,0,0,1,14.49,5c.9,5.1,4.32,9.67,3.22,15.25-.13.66.76,1.76,1.45,2.33,8.28,6.85,10.24,17.08,14.15,26.26-.07,5.89-2.12,10.78-7.5,13.66-2.72,1.47-2,2.95-.82,5,3.86,6.46,3.12,15.67-1.51,20.79-4.34,4.78-10.8,5.76-18.17,2.36-2.44-1.13-3.59.39-5.08,1.44-6.41,4.54-6,11.75-7,18.35-.4,2.76-.67,5.39-2.42,7.7-1.1,1.45-1.16,3-.81,4.92,2.19,12.39-4.36,23.43-16.3,27-7.12,2.11-13.93,5.78-20.31,9.68-5.63,3.44-16.53,3.14-21.93-1.56a164.1,164.1,0,0,0-14.54-11.21c-5-3.47-7.2-9.49-12.4-12.66-3-1.84-5.84-4-8.86-5.87a21.66,21.66,0,0,1-9.05-10.9c-3.28-8.37-5.12-17-2.81-26,.57-2.24-.1-3.59-2.92-3.66-12.94-.33-25.89-1.32-38.8-1a14.74,14.74,0,0,0-11.18,5.55c-5.15,6.73-16.26,7.34-21.78.87-2.08-2.43-5.18-3.83-6.54-6.95-.86-2-2.62-1-3.76-.34-10.2,6-22.61,6-32.81,12.34-3.82,2.36-8.74,3.14-13.28,4.09-6,1.27-14.4-3.3-17-8.76C.76,110.7,3.11,101,7.41,98.09c6.05-4,9.7-10.89,16.7-13.69,1.16-.46,1-1.65.88-2.54A19.9,19.9,0,0,1,27,71.5c3.58-7.91,3.13-16.47,3.67-24.73.64-10,5-18.18,10.18-26.06C45.74,13.3,53.3,8.83,61.06,4.83Z"/></g></g></svg>