<svg xmlns="http://www.w3.org/2000/svg" viewBox="0 0 50 35.16"><defs><style>.cls-1{fill:#fff;}</style></defs><title>video</title><g id="Layer_2" data-name="Layer 2"><g id="Desktop"><path class="cls-1" d="M49,5.5a6.3,6.3,0,0,0-4.43-4.45C40.64,0,25,0,25,0S9.36,0,5.47,1.05A6.3,6.3,0,0,0,1,5.5C0,9.43,0,17.61,0,17.61S0,25.8,1,29.73A6.18,6.18,0,0,0,5.47,34.1C9.36,35.16,25,35.16,25,35.16s15.64,0,19.53-1.06A6.18,6.18,0,0,0,49,29.73c1-3.93,1-12.12,1-12.12S50,9.43,49,5.5ZM19.56,25.05V10.18l13.06,7.43L19.56,25.05Z"/></g></g></svg>